{"title":"Easy Rider (1969) dvd-rip + 5.1 + MANY subtitles","uid":5436321,"size":1016963913,"categoryP":"video","categoryS":"movies","magnet":"?xt=urn:btih:b630261fd71fc19deb813ad3d120b7a54c59f100&amp;dn=Easy+Rider+%281969%29+dvd-rip+%2B+5.1+%2B+MANY+subtitles&amp;tr=udp%3A%2F%2Ftracker.openbittorrent.com%3A80&amp;tr=udp%3A%2F%2Fopen.demonii.com%3A1337&amp;tr=udp%3A%2F%2Ftracker.coppersurfer.tk%3A6969&amp;tr=udp%3A%2F%2Fexodus.desync.com%3A6969","seeders":2,"leechers":0,"uploader":"pospit","files":13,"time":1268764040,"description":"Easy Rider (1969) PAL 16:9 (720x408) AC3 5.1 many subtitles\n\n &lt;a href=&quot;\nhttp://www.imdb.com/title/tt0064276/&quot; rel=&quot;nofollow&quot; target=&quot;_NEW&quot;&gt;\nhttp://www.imdb.com/title/tt0064276/&lt;/a&gt;\n\n\n&quot;This Year It's Easy Rider\n\nA man went looking for America. And couldn't find it anywhere..&quot;\n\n\n-----------------------------------------------------------------------------------\ndivx/xvid made for stand-alone-dvd players!!\n\n\ndon't Hit and Run!! we are here to help each other out!\n-----------------------------------------------------------------------------------\nsubtitles for :\n\ncesky, dansk, deutsch, english, espanol, francais, italiano, nederlands, norsk,\npolski, portuguÃƒÂ¨s, svenska\n\nRENAME THE SUBTITLE YOU NEED TO Easy Rider.srt\n\n-----------------------------------------------------------------------------------\ngrtz POSPIT\n\n-----------------------------------------------------------------------------------\n\n\nFormat                           : DivX\nFormat/Info                      : Hack of AVI\nFile size                        : 969 MiB\nDuration                         : 1h 31mn\nOverall bit rate                 : 1 478 Kbps\n\nVideo\nID                               : 0\nFormat                           : MPEG-4 Visual\nFormat profile                   : Advanced Simple@L5\nFormat settings, BVOP            : Ja\nFormat settings, QPel            : Nee\nFormat settings, GMC             : Geen warppoints\nFormat settings, Matrix          : Aangepast\nMuxing mode                      : Packed bitstream\nCodec ID                         : DX50\nCodec ID/Hint                    : DivX 5\nDuration                         : 1h 31mn\nBit rate                         : 1 020 Kbps\nWidth                            : 720 pixels\nHeight                           : 408 pixels\nDisplay aspect ratio             : 16:9\nFrame rate                       : 25,000 fps\nResolution                       : 8 bits\nColorimetry                      : 4:2:0\nScan type                        : Progressief\nBits/(Pixel*Frame)               : 0.139\nStream size                      : 669 MiB (69%)\nTitle                            : Video \nWriting library                  : XviD 1.2.1 (UTC 2008-12-04)\n\nAudio\nID                               : 1\nFormat                           : AC-3\nFormat/Info                      : Audio Coding 3\nCodec ID                         : 2000\nDuration                         : 1h 31mn\nBit rate mode                    : Constant\nBit rate                         : 448 Kbps\nChannel(s)                       : 6 kanalen\nChannel positions                : Front: L C R, Surround: L R, LFE\nSampling rate                    : 48,0 KHz\nStream size                      : 294 MiB (30%)\nAlignment                        : Gesplitst over interleaves\nInterleave, duration             : 40 ms (1,00 videoframes)\nInterleave, preload duration     : 500 ms\nTitle                            : Audio \n\n","torrent":{"xt":"urn:btih:b630261fd71fc19deb813ad3d120b7a54c59f100","amp;dn":"Easy+Rider+%281969%29+dvd-rip+%2B+5.1+%2B+MANY+subtitles","amp;tr":["udp%3A%2F%2Ftracker.openbittorrent.com%3A80","udp%3A%2F%2Fopen.demonii.com%3A1337","udp%3A%2F%2Ftracker.coppersurfer.tk%3A6969","udp%3A%2F%2Fexodus.desync.com%3A6969"],"infoHash":"b630261fd71fc19deb813ad3d120b7a54c59f100","infoHashBuffer":{"type":"Buffer","data":[182,48,38,31,215,31,193,157,235,129,58,211,209,32,183,165,76,89,241,0]},"announce":[],"urlList":[]}}